<svg xmlns="http://www.w3.org/2000/svg" xmlns:xlink="http://www.w3.org/1999/xlink" width="192" zoomAndPan="magnify" viewBox="0 0 144 143.999998" height="192" preserveAspectRatio="xMidYMid meet" version="1.0"><defs><g/><clipPath id="6c32f9ab82"><path d="M 61 34.214844 L 92 34.214844 L 92 86.078125 L 61 86.078125 Z M 61 34.214844 " clip-rule="nonzero"/></clipPath><clipPath id="53e83f651d"><path d="M 10.261719 34.214844 L 65 34.214844 L 65 86.078125 L 10.261719 86.078125 Z M 10.261719 34.214844 " clip-rule="nonzero"/></clipPath><clipPath id="7a07d0ddc5"><path d="M 79 34.214844 L 133.738281 34.214844 L 133.738281 86.078125 L 79 86.078125 Z M 79 34.214844 " clip-rule="nonzero"/></clipPath></defs><rect x="-14.4" width="172.8" fill="#ffffff" y="-14.4" height="172.799997" fill-opacity="1"/><rect x="-14.4" width="172.8" fill="#ffffff" y="-14.4" height="172.799997" fill-opacity="1"/><g clip-path="url(#6c32f9ab82)"><path fill="#1bb072" d="M 61.574219 65.128906 L 79.421875 34.214844 L 91.535156 55.125 L 73.667969 86.074219 L 61.574219 65.128906 " fill-opacity="1" fill-rule="nonzero"/></g><g clip-path="url(#53e83f651d)"><path fill="#0f7a4a" d="M 34.503906 86.074219 L 64.550781 34.214844 L 40.1875 34.214844 L 10.246094 86.074219 L 34.503906 86.074219 " fill-opacity="1" fill-rule="nonzero"/></g><g clip-path="url(#7a07d0ddc5)"><path fill="#0f7a4a" d="M 133.726562 86.074219 L 103.785156 34.214844 L 79.421875 34.214844 L 109.464844 86.074219 L 133.726562 86.074219 " fill-opacity="1" fill-rule="nonzero"/></g><g fill="#0f7a4a" fill-opacity="1"><g transform="translate(28.531584, 105.338615)"><g><path d="M 3.953125 0 L 0.796875 0 L 0.796875 -14.21875 C 0.796875 -14.65625 0.945312 -15.023438 1.25 -15.328125 C 1.5625 -15.640625 1.9375 -15.796875 2.375 -15.796875 C 2.800781 -15.796875 3.175781 -15.640625 3.5 -15.328125 L 13.4375 -5.390625 L 13.4375 -15.796875 L 16.59375 -15.796875 L 16.59375 -1.578125 C 16.59375 -1.140625 16.4375 -0.765625 16.125 -0.453125 C 15.8125 -0.148438 15.441406 0 15.015625 0 C 14.578125 0 14.203125 -0.15625 13.890625 -0.46875 L 3.953125 -10.40625 Z M 3.953125 0 "/></g></g></g><g fill="#0f7a4a" fill-opacity="1"><g transform="translate(45.917096, 105.338615)"><g><path d="M 16.59375 -15.796875 L 16.59375 -12.640625 L 3.953125 -12.640625 L 3.953125 -9.484375 L 16.59375 -9.484375 L 16.59375 -6.3125 L 3.953125 -6.3125 L 3.953125 -3.15625 L 16.59375 -3.15625 L 16.59375 0 L 3.953125 0 C 3.367188 0 2.835938 -0.140625 2.359375 -0.421875 C 1.878906 -0.703125 1.5 -1.082031 1.21875 -1.5625 C 0.9375 -2.050781 0.796875 -2.582031 0.796875 -3.15625 L 0.796875 -12.640625 C 0.796875 -13.222656 0.9375 -13.753906 1.21875 -14.234375 C 1.5 -14.710938 1.878906 -15.09375 2.359375 -15.375 C 2.835938 -15.65625 3.367188 -15.796875 3.953125 -15.796875 Z M 16.59375 -15.796875 "/></g></g></g><g fill="#0f7a4a" fill-opacity="1"><g transform="translate(63.302608, 105.338615)"><g><path d="M 16.59375 -15.796875 L 16.59375 -13.59375 C 16.59375 -13.144531 16.429688 -12.757812 16.109375 -12.4375 L 11.578125 -7.90625 L 16.109375 -3.359375 C 16.429688 -3.046875 16.59375 -2.664062 16.59375 -2.21875 L 16.59375 0 L 13.4375 0 L 13.4375 -1.578125 L 8.6875 -6.3125 L 3.953125 -1.578125 L 3.953125 0 L 0.796875 0 L 0.796875 -2.21875 C 0.796875 -2.664062 0.953125 -3.046875 1.265625 -3.359375 L 5.8125 -7.90625 L 1.265625 -12.4375 C 0.953125 -12.757812 0.796875 -13.144531 0.796875 -13.59375 L 0.796875 -15.796875 L 3.953125 -15.796875 L 3.953125 -14.21875 L 8.6875 -9.484375 L 13.4375 -14.21875 L 13.4375 -15.796875 Z M 16.59375 -15.796875 "/></g></g></g><g fill="#0f7a4a" fill-opacity="1"><g transform="translate(80.68812, 105.338615)"><g><path d="M 13.4375 0 L 3.953125 0 C 3.367188 0 2.835938 -0.140625 2.359375 -0.421875 C 1.878906 -0.703125 1.5 -1.082031 1.21875 -1.5625 C 0.9375 -2.050781 0.796875 -2.582031 0.796875 -3.15625 L 0.796875 -15.796875 L 3.953125 -15.796875 L 3.953125 -3.15625 L 13.4375 -3.15625 L 13.4375 -15.796875 L 16.59375 -15.796875 L 16.59375 -3.15625 C 16.59375 -2.582031 16.445312 -2.050781 16.15625 -1.5625 C 15.875 -1.082031 15.492188 -0.703125 15.015625 -0.421875 C 14.535156 -0.140625 14.007812 0 13.4375 0 Z M 13.4375 0 "/></g></g></g><g fill="#0f7a4a" fill-opacity="1"><g transform="translate(98.073632, 105.338615)"><g><path d="M 16.59375 -15.796875 L 16.59375 -12.640625 L 3.953125 -12.640625 L 3.953125 -9.484375 L 13.4375 -9.484375 C 14.007812 -9.484375 14.535156 -9.335938 15.015625 -9.046875 C 15.492188 -8.765625 15.875 -8.382812 16.15625 -7.90625 C 16.445312 -7.425781 16.59375 -6.894531 16.59375 -6.3125 L 16.59375 -3.15625 C 16.59375 -2.582031 16.445312 -2.050781 16.15625 -1.5625 C 15.875 -1.082031 15.492188 -0.703125 15.015625 -0.421875 C 14.535156 -0.140625 14.007812 0 13.4375 0 L 0.796875 0 L 0.796875 -3.15625 L 13.4375 -3.15625 L 13.4375 -6.3125 L 3.953125 -6.3125 C 3.367188 -6.3125 2.835938 -6.453125 2.359375 -6.734375 C 1.878906 -7.023438 1.5 -7.410156 1.21875 -7.890625 C 0.9375 -8.367188 0.796875 -8.898438 0.796875 -9.484375 L 0.796875 -12.640625 C 0.796875 -13.222656 0.9375 -13.753906 1.21875 -14.234375 C 1.5 -14.710938 1.878906 -15.09375 2.359375 -15.375 C 2.835938 -15.65625 3.367188 -15.796875 3.953125 -15.796875 Z M 16.59375 -15.796875 "/></g></g></g></svg>