<svg xmlns="http://www.w3.org/2000/svg" xmlns:xlink="http://www.w3.org/1999/xlink" width="180" zoomAndPan="magnify" viewBox="0 0 135 135.000003" height="180" preserveAspectRatio="xMidYMid meet" version="1.0"><defs><g/><clipPath id="1713f4576c"><path d="M 0.496094 0 L 134.503906 0 L 134.503906 134.007812 L 0.496094 134.007812 Z M 0.496094 0 " clip-rule="nonzero"/></clipPath><clipPath id="a2f42ba503"><path d="M 57 31.84375 L 86 31.84375 L 86 80.101562 L 57 80.101562 Z M 57 31.84375 " clip-rule="nonzero"/></clipPath><clipPath id="6b2c86617f"><path d="M 10.046875 31.84375 L 61 31.84375 L 61 80.101562 L 10.046875 80.101562 Z M 10.046875 31.84375 " clip-rule="nonzero"/></clipPath><clipPath id="29e4c6062b"><path d="M 74 31.84375 L 124.953125 31.84375 L 124.953125 80.101562 L 74 80.101562 Z M 74 31.84375 " clip-rule="nonzero"/></clipPath></defs><g clip-path="url(#1713f4576c)"><path fill="#ffffff" d="M 0.496094 0 L 134.503906 0 L 134.503906 134.007812 L 0.496094 134.007812 Z M 0.496094 0 " fill-opacity="1" fill-rule="nonzero"/><path fill="#ffffff" d="M 0.496094 0 L 134.503906 0 L 134.503906 134.007812 L 0.496094 134.007812 Z M 0.496094 0 " fill-opacity="1" fill-rule="nonzero"/></g><g clip-path="url(#a2f42ba503)"><path fill="#1bb072" d="M 57.796875 60.609375 L 74.40625 31.84375 L 85.679688 51.300781 L 69.050781 80.101562 L 57.796875 60.609375 " fill-opacity="1" fill-rule="nonzero"/></g><g clip-path="url(#6b2c86617f)"><path fill="#0f7a4a" d="M 32.609375 80.101562 L 60.566406 31.84375 L 37.894531 31.84375 L 10.03125 80.101562 L 32.609375 80.101562 " fill-opacity="1" fill-rule="nonzero"/></g><g clip-path="url(#29e4c6062b)"><path fill="#0f7a4a" d="M 124.941406 80.101562 L 97.078125 31.84375 L 74.40625 31.84375 L 102.367188 80.101562 L 124.941406 80.101562 " fill-opacity="1" fill-rule="nonzero"/></g><g fill="#0f7a4a" fill-opacity="1"><g transform="translate(27.048001, 98.02883)"><g><path d="M 3.671875 0 L 0.734375 0 L 0.734375 -13.234375 C 0.734375 -13.640625 0.875 -13.988281 1.15625 -14.28125 C 1.445312 -14.570312 1.796875 -14.71875 2.203125 -14.71875 C 2.609375 -14.71875 2.957031 -14.566406 3.25 -14.265625 L 12.5 -5.015625 L 12.5 -14.71875 L 15.453125 -14.71875 L 15.453125 -1.46875 C 15.453125 -1.0625 15.304688 -0.710938 15.015625 -0.421875 C 14.722656 -0.140625 14.378906 0 13.984375 0 C 13.578125 0 13.222656 -0.144531 12.921875 -0.4375 L 3.671875 -9.6875 Z M 3.671875 0 "/></g></g></g><g fill="#0f7a4a" fill-opacity="1"><g transform="translate(43.227073, 98.02883)"><g><path d="M 15.453125 -14.71875 L 15.453125 -11.765625 L 3.671875 -11.765625 L 3.671875 -8.828125 L 15.453125 -8.828125 L 15.453125 -5.890625 L 3.671875 -5.890625 L 3.671875 -2.9375 L 15.453125 -2.9375 L 15.453125 0 L 3.671875 0 C 3.140625 0 2.648438 -0.128906 2.203125 -0.390625 C 1.753906 -0.660156 1.394531 -1.019531 1.125 -1.46875 C 0.863281 -1.914062 0.734375 -2.40625 0.734375 -2.9375 L 0.734375 -11.765625 C 0.734375 -12.304688 0.863281 -12.800781 1.125 -13.25 C 1.394531 -13.695312 1.753906 -14.050781 2.203125 -14.3125 C 2.648438 -14.582031 3.140625 -14.71875 3.671875 -14.71875 Z M 15.453125 -14.71875 "/></g></g></g><g fill="#0f7a4a" fill-opacity="1"><g transform="translate(59.406146, 98.02883)"><g><path d="M 15.453125 -14.71875 L 15.453125 -12.65625 C 15.453125 -12.238281 15.300781 -11.882812 15 -11.59375 L 10.78125 -7.359375 L 15 -3.125 C 15.300781 -2.832031 15.453125 -2.476562 15.453125 -2.0625 L 15.453125 0 L 12.5 0 L 12.5 -1.46875 L 8.09375 -5.890625 L 3.671875 -1.46875 L 3.671875 0 L 0.734375 0 L 0.734375 -2.0625 C 0.734375 -2.476562 0.878906 -2.832031 1.171875 -3.125 L 5.40625 -7.359375 L 1.171875 -11.59375 C 0.878906 -11.882812 0.734375 -12.238281 0.734375 -12.65625 L 0.734375 -14.71875 L 3.671875 -14.71875 L 3.671875 -13.234375 L 8.09375 -8.828125 L 12.5 -13.234375 L 12.5 -14.71875 Z M 15.453125 -14.71875 "/></g></g></g><g fill="#0f7a4a" fill-opacity="1"><g transform="translate(75.585219, 98.02883)"><g><path d="M 12.5 0 L 3.671875 0 C 3.140625 0 2.648438 -0.128906 2.203125 -0.390625 C 1.753906 -0.660156 1.394531 -1.019531 1.125 -1.46875 C 0.863281 -1.914062 0.734375 -2.40625 0.734375 -2.9375 L 0.734375 -14.71875 L 3.671875 -14.71875 L 3.671875 -2.9375 L 12.5 -2.9375 L 12.5 -14.71875 L 15.453125 -14.71875 L 15.453125 -2.9375 C 15.453125 -2.40625 15.316406 -1.914062 15.046875 -1.46875 C 14.785156 -1.019531 14.429688 -0.660156 13.984375 -0.390625 C 13.535156 -0.128906 13.039062 0 12.5 0 Z M 12.5 0 "/></g></g></g><g fill="#0f7a4a" fill-opacity="1"><g transform="translate(91.764292, 98.02883)"><g><path d="M 15.453125 -14.71875 L 15.453125 -11.765625 L 3.671875 -11.765625 L 3.671875 -8.828125 L 12.5 -8.828125 C 13.039062 -8.828125 13.535156 -8.691406 13.984375 -8.421875 C 14.429688 -8.160156 14.785156 -7.804688 15.046875 -7.359375 C 15.316406 -6.910156 15.453125 -6.421875 15.453125 -5.890625 L 15.453125 -2.9375 C 15.453125 -2.40625 15.316406 -1.914062 15.046875 -1.46875 C 14.785156 -1.019531 14.429688 -0.660156 13.984375 -0.390625 C 13.535156 -0.128906 13.039062 0 12.5 0 L 0.734375 0 L 0.734375 -2.9375 L 12.5 -2.9375 L 12.5 -5.890625 L 3.671875 -5.890625 C 3.140625 -5.890625 2.648438 -6.019531 2.203125 -6.28125 C 1.753906 -6.539062 1.394531 -6.894531 1.125 -7.34375 C 0.863281 -7.789062 0.734375 -8.285156 0.734375 -8.828125 L 0.734375 -11.765625 C 0.734375 -12.304688 0.863281 -12.800781 1.125 -13.25 C 1.394531 -13.695312 1.753906 -14.050781 2.203125 -14.3125 C 2.648438 -14.582031 3.140625 -14.71875 3.671875 -14.71875 Z M 15.453125 -14.71875 "/></g></g></g></svg>