<svg xmlns="http://www.w3.org/2000/svg" xmlns:xlink="http://www.w3.org/1999/xlink" width="40" zoomAndPan="magnify" viewBox="0 0 30 30.000001" height="40" preserveAspectRatio="xMidYMid meet" version="1.0"><defs><g/><clipPath id="37cbce8a79"><path d="M 12 6.898438 L 19 6.898438 L 19 17.355469 L 12 17.355469 Z M 12 6.898438 " clip-rule="nonzero"/></clipPath><clipPath id="69b63e596b"><path d="M 2.554688 6.898438 L 14 6.898438 L 14 17.355469 L 2.554688 17.355469 Z M 2.554688 6.898438 " clip-rule="nonzero"/></clipPath><clipPath id="f22a253805"><path d="M 16 6.898438 L 27.445312 6.898438 L 27.445312 17.355469 L 16 17.355469 Z M 16 6.898438 " clip-rule="nonzero"/></clipPath></defs><g clip-path="url(#37cbce8a79)"><path fill="#1bb072" d="M 12.898438 13.132812 L 16.496094 6.898438 L 18.9375 11.113281 L 15.335938 17.355469 L 12.898438 13.132812 " fill-opacity="1" fill-rule="nonzero"/></g><g clip-path="url(#69b63e596b)"><path fill="#0f7a4a" d="M 7.441406 17.355469 L 13.496094 6.898438 L 8.585938 6.898438 L 2.550781 17.355469 L 7.441406 17.355469 " fill-opacity="1" fill-rule="nonzero"/></g><g clip-path="url(#f22a253805)"><path fill="#0f7a4a" d="M 27.445312 17.355469 L 21.40625 6.898438 L 16.496094 6.898438 L 22.554688 17.355469 L 27.445312 17.355469 " fill-opacity="1" fill-rule="nonzero"/></g><g fill="#0f7a4a" fill-opacity="1"><g transform="translate(6.236206, 21.237627)"><g><path d="M 0.796875 0 L 0.15625 0 L 0.15625 -2.875 C 0.15625 -2.957031 0.1875 -3.03125 0.25 -3.09375 C 0.3125 -3.15625 0.390625 -3.1875 0.484375 -3.1875 C 0.566406 -3.1875 0.640625 -3.15625 0.703125 -3.09375 L 2.703125 -1.09375 L 2.703125 -3.1875 L 3.34375 -3.1875 L 3.34375 -0.3125 C 3.34375 -0.226562 3.3125 -0.15625 3.25 -0.09375 C 3.1875 -0.03125 3.113281 0 3.03125 0 C 2.9375 0 2.859375 -0.03125 2.796875 -0.09375 L 0.796875 -2.09375 Z M 0.796875 0 "/></g></g></g><g fill="#0f7a4a" fill-opacity="1"><g transform="translate(9.74135, 21.237627)"><g><path d="M 3.34375 -3.1875 L 3.34375 -2.546875 L 0.796875 -2.546875 L 0.796875 -1.90625 L 3.34375 -1.90625 L 3.34375 -1.28125 L 0.796875 -1.28125 L 0.796875 -0.640625 L 3.34375 -0.640625 L 3.34375 0 L 0.796875 0 C 0.679688 0 0.570312 -0.0234375 0.46875 -0.078125 C 0.375 -0.140625 0.296875 -0.21875 0.234375 -0.3125 C 0.179688 -0.414062 0.15625 -0.523438 0.15625 -0.640625 L 0.15625 -2.546875 C 0.15625 -2.660156 0.179688 -2.765625 0.234375 -2.859375 C 0.296875 -2.960938 0.375 -3.039062 0.46875 -3.09375 C 0.570312 -3.15625 0.679688 -3.1875 0.796875 -3.1875 Z M 3.34375 -3.1875 "/></g></g></g><g fill="#0f7a4a" fill-opacity="1"><g transform="translate(13.246493, 21.237627)"><g><path d="M 3.34375 -3.1875 L 3.34375 -2.734375 C 3.34375 -2.648438 3.3125 -2.578125 3.25 -2.515625 L 2.328125 -1.59375 L 3.25 -0.671875 C 3.3125 -0.609375 3.34375 -0.535156 3.34375 -0.453125 L 3.34375 0 L 2.703125 0 L 2.703125 -0.3125 L 1.75 -1.28125 L 0.796875 -0.3125 L 0.796875 0 L 0.15625 0 L 0.15625 -0.453125 C 0.15625 -0.535156 0.1875 -0.609375 0.25 -0.671875 L 1.171875 -1.59375 L 0.25 -2.515625 C 0.1875 -2.578125 0.15625 -2.648438 0.15625 -2.734375 L 0.15625 -3.1875 L 0.796875 -3.1875 L 0.796875 -2.875 L 1.75 -1.90625 L 2.703125 -2.875 L 2.703125 -3.1875 Z M 3.34375 -3.1875 "/></g></g></g><g fill="#0f7a4a" fill-opacity="1"><g transform="translate(16.751637, 21.237627)"><g><path d="M 2.703125 0 L 0.796875 0 C 0.679688 0 0.570312 -0.0234375 0.46875 -0.078125 C 0.375 -0.140625 0.296875 -0.21875 0.234375 -0.3125 C 0.179688 -0.414062 0.15625 -0.523438 0.15625 -0.640625 L 0.15625 -3.1875 L 0.796875 -3.1875 L 0.796875 -0.640625 L 2.703125 -0.640625 L 2.703125 -3.1875 L 3.34375 -3.1875 L 3.34375 -0.640625 C 3.34375 -0.523438 3.3125 -0.414062 3.25 -0.3125 C 3.195312 -0.21875 3.125 -0.140625 3.03125 -0.078125 C 2.9375 -0.0234375 2.828125 0 2.703125 0 Z M 2.703125 0 "/></g></g></g><g fill="#0f7a4a" fill-opacity="1"><g transform="translate(20.256781, 21.237627)"><g><path d="M 3.34375 -3.1875 L 3.34375 -2.546875 L 0.796875 -2.546875 L 0.796875 -1.90625 L 2.703125 -1.90625 C 2.828125 -1.90625 2.9375 -1.875 3.03125 -1.8125 C 3.125 -1.757812 3.195312 -1.6875 3.25 -1.59375 C 3.3125 -1.5 3.34375 -1.394531 3.34375 -1.28125 L 3.34375 -0.640625 C 3.34375 -0.523438 3.3125 -0.414062 3.25 -0.3125 C 3.195312 -0.21875 3.125 -0.140625 3.03125 -0.078125 C 2.9375 -0.0234375 2.828125 0 2.703125 0 L 0.15625 0 L 0.15625 -0.640625 L 2.703125 -0.640625 L 2.703125 -1.28125 L 0.796875 -1.28125 C 0.679688 -1.28125 0.570312 -1.304688 0.46875 -1.359375 C 0.375 -1.421875 0.296875 -1.5 0.234375 -1.59375 C 0.179688 -1.6875 0.15625 -1.789062 0.15625 -1.90625 L 0.15625 -2.546875 C 0.15625 -2.660156 0.179688 -2.765625 0.234375 -2.859375 C 0.296875 -2.960938 0.375 -3.039062 0.46875 -3.09375 C 0.570312 -3.15625 0.679688 -3.1875 0.796875 -3.1875 Z M 3.34375 -3.1875 "/></g></g></g></svg>