<svg xmlns="http://www.w3.org/2000/svg" xmlns:xlink="http://www.w3.org/1999/xlink" width="48" zoomAndPan="magnify" viewBox="0 0 36 36.000001" height="48" preserveAspectRatio="xMidYMid meet" version="1.0"><defs><g/><clipPath id="afb97e9042"><path d="M 0.488281 0 L 35.511719 0 L 35.511719 35.027344 L 0.488281 35.027344 Z M 0.488281 0 " clip-rule="nonzero"/></clipPath><clipPath id="e53f0cb506"><path d="M 15 8.324219 L 23 8.324219 L 23 20.9375 L 15 20.9375 Z M 15 8.324219 " clip-rule="nonzero"/></clipPath><clipPath id="8ff95b21ed"><path d="M 2.984375 8.324219 L 17 8.324219 L 17 20.9375 L 2.984375 20.9375 Z M 2.984375 8.324219 " clip-rule="nonzero"/></clipPath><clipPath id="061f281133"><path d="M 19 8.324219 L 33.015625 8.324219 L 33.015625 20.9375 L 19 20.9375 Z M 19 8.324219 " clip-rule="nonzero"/></clipPath></defs><g clip-path="url(#afb97e9042)"><path fill="#ffffff" d="M 0.488281 0 L 35.511719 0 L 35.511719 35.027344 L 0.488281 35.027344 Z M 0.488281 0 " fill-opacity="1" fill-rule="nonzero"/><path fill="#ffffff" d="M 0.488281 0 L 35.511719 0 L 35.511719 35.027344 L 0.488281 35.027344 Z M 0.488281 0 " fill-opacity="1" fill-rule="nonzero"/></g><g clip-path="url(#e53f0cb506)"><path fill="#1bb072" d="M 15.464844 15.84375 L 19.804688 8.324219 L 22.753906 13.410156 L 18.40625 20.9375 L 15.464844 15.84375 " fill-opacity="1" fill-rule="nonzero"/></g><g clip-path="url(#8ff95b21ed)"><path fill="#0f7a4a" d="M 8.878906 20.9375 L 16.1875 8.324219 L 10.261719 8.324219 L 2.980469 20.9375 L 8.878906 20.9375 " fill-opacity="1" fill-rule="nonzero"/></g><g clip-path="url(#061f281133)"><path fill="#0f7a4a" d="M 33.015625 20.9375 L 25.730469 8.324219 L 19.804688 8.324219 L 27.113281 20.9375 L 33.015625 20.9375 " fill-opacity="1" fill-rule="nonzero"/></g><g fill="#0f7a4a" fill-opacity="1"><g transform="translate(7.426601, 25.622909)"><g><path d="M 0.96875 0 L 0.1875 0 L 0.1875 -3.46875 C 0.1875 -3.570312 0.222656 -3.660156 0.296875 -3.734375 C 0.378906 -3.804688 0.472656 -3.84375 0.578125 -3.84375 C 0.679688 -3.84375 0.773438 -3.804688 0.859375 -3.734375 L 3.265625 -1.3125 L 3.265625 -3.84375 L 4.046875 -3.84375 L 4.046875 -0.390625 C 4.046875 -0.273438 4.003906 -0.179688 3.921875 -0.109375 C 3.847656 -0.0351562 3.757812 0 3.65625 0 C 3.550781 0 3.460938 -0.0351562 3.390625 -0.109375 L 0.96875 -2.53125 Z M 0.96875 0 "/></g></g></g><g fill="#0f7a4a" fill-opacity="1"><g transform="translate(11.655509, 25.622909)"><g><path d="M 4.046875 -3.84375 L 4.046875 -3.078125 L 0.96875 -3.078125 L 0.96875 -2.3125 L 4.046875 -2.3125 L 4.046875 -1.546875 L 0.96875 -1.546875 L 0.96875 -0.765625 L 4.046875 -0.765625 L 4.046875 0 L 0.96875 0 C 0.820312 0 0.691406 -0.03125 0.578125 -0.09375 C 0.460938 -0.164062 0.367188 -0.257812 0.296875 -0.375 C 0.222656 -0.5 0.1875 -0.628906 0.1875 -0.765625 L 0.1875 -3.078125 C 0.1875 -3.222656 0.222656 -3.351562 0.296875 -3.46875 C 0.367188 -3.582031 0.460938 -3.671875 0.578125 -3.734375 C 0.691406 -3.804688 0.820312 -3.84375 0.96875 -3.84375 Z M 4.046875 -3.84375 "/></g></g></g><g fill="#0f7a4a" fill-opacity="1"><g transform="translate(15.884418, 25.622909)"><g><path d="M 4.046875 -3.84375 L 4.046875 -3.3125 C 4.046875 -3.195312 4.003906 -3.101562 3.921875 -3.03125 L 2.8125 -1.921875 L 3.921875 -0.8125 C 4.003906 -0.738281 4.046875 -0.644531 4.046875 -0.53125 L 4.046875 0 L 3.265625 0 L 3.265625 -0.390625 L 2.125 -1.546875 L 0.96875 -0.390625 L 0.96875 0 L 0.1875 0 L 0.1875 -0.53125 C 0.1875 -0.644531 0.226562 -0.738281 0.3125 -0.8125 L 1.421875 -1.921875 L 0.3125 -3.03125 C 0.226562 -3.101562 0.1875 -3.195312 0.1875 -3.3125 L 0.1875 -3.84375 L 0.96875 -3.84375 L 0.96875 -3.46875 L 2.125 -2.3125 L 3.265625 -3.46875 L 3.265625 -3.84375 Z M 4.046875 -3.84375 "/></g></g></g><g fill="#0f7a4a" fill-opacity="1"><g transform="translate(20.113327, 25.622909)"><g><path d="M 3.265625 0 L 0.96875 0 C 0.820312 0 0.691406 -0.03125 0.578125 -0.09375 C 0.460938 -0.164062 0.367188 -0.257812 0.296875 -0.375 C 0.222656 -0.5 0.1875 -0.628906 0.1875 -0.765625 L 0.1875 -3.84375 L 0.96875 -3.84375 L 0.96875 -0.765625 L 3.265625 -0.765625 L 3.265625 -3.84375 L 4.046875 -3.84375 L 4.046875 -0.765625 C 4.046875 -0.628906 4.007812 -0.5 3.9375 -0.375 C 3.863281 -0.257812 3.769531 -0.164062 3.65625 -0.09375 C 3.539062 -0.03125 3.410156 0 3.265625 0 Z M 3.265625 0 "/></g></g></g><g fill="#0f7a4a" fill-opacity="1"><g transform="translate(24.342235, 25.622909)"><g><path d="M 4.046875 -3.84375 L 4.046875 -3.078125 L 0.96875 -3.078125 L 0.96875 -2.3125 L 3.265625 -2.3125 C 3.410156 -2.3125 3.539062 -2.273438 3.65625 -2.203125 C 3.769531 -2.140625 3.863281 -2.046875 3.9375 -1.921875 C 4.007812 -1.804688 4.046875 -1.679688 4.046875 -1.546875 L 4.046875 -0.765625 C 4.046875 -0.628906 4.007812 -0.5 3.9375 -0.375 C 3.863281 -0.257812 3.769531 -0.164062 3.65625 -0.09375 C 3.539062 -0.03125 3.410156 0 3.265625 0 L 0.1875 0 L 0.1875 -0.765625 L 3.265625 -0.765625 L 3.265625 -1.546875 L 0.96875 -1.546875 C 0.820312 -1.546875 0.691406 -1.578125 0.578125 -1.640625 C 0.460938 -1.710938 0.367188 -1.804688 0.296875 -1.921875 C 0.222656 -2.035156 0.1875 -2.164062 0.1875 -2.3125 L 0.1875 -3.078125 C 0.1875 -3.222656 0.222656 -3.351562 0.296875 -3.46875 C 0.367188 -3.582031 0.460938 -3.671875 0.578125 -3.734375 C 0.691406 -3.804688 0.820312 -3.84375 0.96875 -3.84375 Z M 4.046875 -3.84375 "/></g></g></g></svg>