<svg xmlns="http://www.w3.org/2000/svg" xmlns:xlink="http://www.w3.org/1999/xlink" width="140" zoomAndPan="magnify" viewBox="0 0 104.88 31.5" height="42" preserveAspectRatio="xMidYMid meet" version="1.0"><defs><g/><clipPath id="4e5fe327c3"><path d="M 69 4.160156 L 83 4.160156 L 83 26.828125 L 69 26.828125 Z M 69 4.160156 " clip-rule="nonzero"/></clipPath><clipPath id="8cacbd15de"><path d="M 47.039062 4.160156 L 71 4.160156 L 71 26.828125 L 47.039062 26.828125 Z M 47.039062 4.160156 " clip-rule="nonzero"/></clipPath><clipPath id="9b2ef60689"><path d="M 77 4.160156 L 101.015625 4.160156 L 101.015625 26.828125 L 77 26.828125 Z M 77 4.160156 " clip-rule="nonzero"/></clipPath></defs><g clip-path="url(#4e5fe327c3)"><path fill="#1bb072" d="M 69.492188 17.679688 L 77.289062 4.175781 L 82.582031 13.308594 L 74.773438 26.828125 L 69.492188 17.679688 " fill-opacity="1" fill-rule="nonzero"/></g><g clip-path="url(#8cacbd15de)"><path fill="#0f7a4a" d="M 57.667969 26.828125 L 70.792969 4.175781 L 60.148438 4.175781 L 47.070312 26.828125 L 57.667969 26.828125 " fill-opacity="1" fill-rule="nonzero"/></g><g clip-path="url(#9b2ef60689)"><path fill="#0f7a4a" d="M 101.011719 26.828125 L 87.929688 4.175781 L 77.289062 4.175781 L 90.414062 26.828125 L 101.011719 26.828125 " fill-opacity="1" fill-rule="nonzero"/></g><g fill="#0f7a4a" fill-opacity="1"><g transform="translate(7.664692, 17.261638)"><g><path d="M 1.859375 0 L 0.375 0 L 0.375 -6.703125 C 0.375 -6.910156 0.445312 -7.085938 0.59375 -7.234375 C 0.738281 -7.378906 0.914062 -7.453125 1.125 -7.453125 C 1.320312 -7.453125 1.492188 -7.375 1.640625 -7.21875 L 6.328125 -2.546875 L 6.328125 -7.453125 L 7.828125 -7.453125 L 7.828125 -0.75 C 7.828125 -0.539062 7.753906 -0.363281 7.609375 -0.21875 C 7.460938 -0.0703125 7.285156 0 7.078125 0 C 6.867188 0 6.691406 -0.0703125 6.546875 -0.21875 L 1.859375 -4.90625 Z M 1.859375 0 "/></g></g></g><g fill="#0f7a4a" fill-opacity="1"><g transform="translate(15.864468, 17.261638)"><g><path d="M 7.828125 -7.453125 L 7.828125 -5.953125 L 1.859375 -5.953125 L 1.859375 -4.46875 L 7.828125 -4.46875 L 7.828125 -2.984375 L 1.859375 -2.984375 L 1.859375 -1.484375 L 7.828125 -1.484375 L 7.828125 0 L 1.859375 0 C 1.585938 0 1.335938 -0.0664062 1.109375 -0.203125 C 0.878906 -0.335938 0.695312 -0.515625 0.5625 -0.734375 C 0.4375 -0.960938 0.375 -1.210938 0.375 -1.484375 L 0.375 -5.953125 C 0.375 -6.234375 0.4375 -6.484375 0.5625 -6.703125 C 0.695312 -6.929688 0.878906 -7.113281 1.109375 -7.25 C 1.335938 -7.382812 1.585938 -7.453125 1.859375 -7.453125 Z M 7.828125 -7.453125 "/></g></g></g><g fill="#0f7a4a" fill-opacity="1"><g transform="translate(24.064243, 17.261638)"><g><path d="M 7.828125 -7.453125 L 7.828125 -6.40625 C 7.828125 -6.195312 7.75 -6.015625 7.59375 -5.859375 L 5.453125 -3.71875 L 7.59375 -1.578125 C 7.75 -1.429688 7.828125 -1.253906 7.828125 -1.046875 L 7.828125 0 L 6.328125 0 L 6.328125 -0.75 L 4.09375 -2.984375 L 1.859375 -0.75 L 1.859375 0 L 0.375 0 L 0.375 -1.046875 C 0.375 -1.253906 0.445312 -1.429688 0.59375 -1.578125 L 2.734375 -3.71875 L 0.59375 -5.859375 C 0.445312 -6.015625 0.375 -6.195312 0.375 -6.40625 L 0.375 -7.453125 L 1.859375 -7.453125 L 1.859375 -6.703125 L 4.09375 -4.46875 L 6.328125 -6.703125 L 6.328125 -7.453125 Z M 7.828125 -7.453125 "/></g></g></g><g fill="#0f7a4a" fill-opacity="1"><g transform="translate(32.264019, 17.261638)"><g><path d="M 6.328125 0 L 1.859375 0 C 1.585938 0 1.335938 -0.0664062 1.109375 -0.203125 C 0.878906 -0.335938 0.695312 -0.515625 0.5625 -0.734375 C 0.4375 -0.960938 0.375 -1.210938 0.375 -1.484375 L 0.375 -7.453125 L 1.859375 -7.453125 L 1.859375 -1.484375 L 6.328125 -1.484375 L 6.328125 -7.453125 L 7.828125 -7.453125 L 7.828125 -1.484375 C 7.828125 -1.210938 7.757812 -0.960938 7.625 -0.734375 C 7.488281 -0.515625 7.304688 -0.335938 7.078125 -0.203125 C 6.847656 -0.0664062 6.597656 0 6.328125 0 Z M 6.328125 0 "/></g></g></g><g fill="#0f7a4a" fill-opacity="1"><g transform="translate(40.463795, 17.261638)"><g><path d="M 7.828125 -7.453125 L 7.828125 -5.953125 L 1.859375 -5.953125 L 1.859375 -4.46875 L 6.328125 -4.46875 C 6.597656 -4.46875 6.847656 -4.398438 7.078125 -4.265625 C 7.304688 -4.128906 7.488281 -3.945312 7.625 -3.71875 C 7.757812 -3.5 7.828125 -3.253906 7.828125 -2.984375 L 7.828125 -1.484375 C 7.828125 -1.210938 7.757812 -0.960938 7.625 -0.734375 C 7.488281 -0.515625 7.304688 -0.335938 7.078125 -0.203125 C 6.847656 -0.0664062 6.597656 0 6.328125 0 L 0.375 0 L 0.375 -1.484375 L 6.328125 -1.484375 L 6.328125 -2.984375 L 1.859375 -2.984375 C 1.585938 -2.984375 1.335938 -3.046875 1.109375 -3.171875 C 0.878906 -3.304688 0.695312 -3.488281 0.5625 -3.71875 C 0.4375 -3.945312 0.375 -4.195312 0.375 -4.46875 L 0.375 -5.953125 C 0.375 -6.234375 0.4375 -6.484375 0.5625 -6.703125 C 0.695312 -6.929688 0.878906 -7.113281 1.109375 -7.25 C 1.335938 -7.382812 1.585938 -7.453125 1.859375 -7.453125 Z M 7.828125 -7.453125 "/></g></g></g><g fill="#0f7a4a" fill-opacity="1"><g transform="translate(15.054327, 21.632287)"><g><path d="M 0.4375 0 L 0.4375 -2.671875 L 1.453125 -2.671875 C 1.703125 -2.671875 1.898438 -2.609375 2.046875 -2.484375 C 2.191406 -2.359375 2.265625 -2.191406 2.265625 -1.984375 C 2.265625 -1.835938 2.226562 -1.710938 2.15625 -1.609375 C 2.082031 -1.503906 1.976562 -1.425781 1.84375 -1.375 C 2 -1.332031 2.117188 -1.253906 2.203125 -1.140625 C 2.296875 -1.023438 2.34375 -0.890625 2.34375 -0.734375 C 2.34375 -0.503906 2.265625 -0.320312 2.109375 -0.1875 C 1.960938 -0.0625 1.757812 0 1.5 0 Z M 0.671875 -0.21875 L 1.484375 -0.21875 C 1.679688 -0.21875 1.832031 -0.265625 1.9375 -0.359375 C 2.050781 -0.453125 2.109375 -0.578125 2.109375 -0.734375 C 2.109375 -0.898438 2.050781 -1.03125 1.9375 -1.125 C 1.820312 -1.21875 1.664062 -1.265625 1.46875 -1.265625 L 0.671875 -1.265625 Z M 0.671875 -1.46875 L 1.4375 -1.46875 C 1.625 -1.46875 1.769531 -1.507812 1.875 -1.59375 C 1.976562 -1.6875 2.03125 -1.8125 2.03125 -1.96875 C 2.03125 -2.125 1.976562 -2.242188 1.875 -2.328125 C 1.769531 -2.421875 1.628906 -2.46875 1.453125 -2.46875 L 0.671875 -2.46875 Z M 0.671875 -1.46875 "/></g></g></g><g fill="#0f7a4a" fill-opacity="1"><g transform="translate(17.642067, 21.632287)"><g><path d="M 1.09375 0 L 1.09375 -0.984375 L 0.078125 -2.671875 L 0.359375 -2.671875 L 1.21875 -1.234375 L 2.078125 -2.671875 L 2.34375 -2.671875 L 1.328125 -0.984375 L 1.328125 0 Z M 1.09375 0 "/></g></g></g><g fill="#0f7a4a" fill-opacity="1"><g transform="translate(20.069027, 21.632287)"><g/></g></g><g fill="#0f7a4a" fill-opacity="1"><g transform="translate(21.094937, 21.632287)"><g><path d="M 0.4375 0 L 0.4375 -2.671875 L 0.65625 -2.671875 L 1.765625 -1 L 2.875 -2.671875 L 3.09375 -2.671875 L 3.09375 0 L 2.859375 0 L 2.859375 -2.25 L 1.859375 -0.75 L 1.671875 -0.75 L 0.671875 -2.25 L 0.671875 0 Z M 0.4375 0 "/></g></g></g><g fill="#0f7a4a" fill-opacity="1"><g transform="translate(24.620541, 21.632287)"><g><path d="M 0.078125 0 L 1.1875 -2.671875 L 1.421875 -2.671875 L 2.53125 0 L 2.28125 0 L 2 -0.671875 L 0.609375 -0.671875 L 0.328125 0 Z M 0.703125 -0.890625 L 1.90625 -0.890625 L 1.3125 -2.359375 Z M 0.703125 -0.890625 "/></g></g></g><g fill="#0f7a4a" fill-opacity="1"><g transform="translate(27.235075, 21.632287)"><g><path d="M 0.4375 0 L 0.4375 -2.671875 L 1.421875 -2.671875 C 1.609375 -2.671875 1.765625 -2.632812 1.890625 -2.5625 C 2.023438 -2.5 2.128906 -2.40625 2.203125 -2.28125 C 2.273438 -2.164062 2.3125 -2.019531 2.3125 -1.84375 C 2.3125 -1.625 2.25 -1.441406 2.125 -1.296875 C 2.007812 -1.148438 1.84375 -1.0625 1.625 -1.03125 L 2.359375 0 L 2.078125 0 L 1.359375 -1 L 0.671875 -1 L 0.671875 0 Z M 0.671875 -1.234375 L 1.40625 -1.234375 C 1.613281 -1.234375 1.773438 -1.285156 1.890625 -1.390625 C 2.015625 -1.503906 2.078125 -1.65625 2.078125 -1.84375 C 2.078125 -2.03125 2.015625 -2.175781 1.890625 -2.28125 C 1.773438 -2.394531 1.613281 -2.453125 1.40625 -2.453125 L 0.671875 -2.453125 Z M 0.671875 -1.234375 "/></g></g></g><g fill="#0f7a4a" fill-opacity="1"><g transform="translate(29.85344, 21.632287)"><g><path d="M 1.609375 0.046875 C 1.335938 0.046875 1.097656 -0.0078125 0.890625 -0.125 C 0.691406 -0.25 0.535156 -0.414062 0.421875 -0.625 C 0.304688 -0.832031 0.25 -1.070312 0.25 -1.34375 C 0.25 -1.613281 0.304688 -1.851562 0.421875 -2.0625 C 0.535156 -2.269531 0.691406 -2.429688 0.890625 -2.546875 C 1.097656 -2.671875 1.335938 -2.734375 1.609375 -2.734375 C 1.804688 -2.734375 1.992188 -2.691406 2.171875 -2.609375 C 2.347656 -2.535156 2.5 -2.429688 2.625 -2.296875 C 2.75 -2.160156 2.835938 -2 2.890625 -1.8125 L 2.65625 -1.8125 C 2.570312 -2.019531 2.4375 -2.1875 2.25 -2.3125 C 2.0625 -2.4375 1.847656 -2.5 1.609375 -2.5 C 1.390625 -2.5 1.191406 -2.445312 1.015625 -2.34375 C 0.847656 -2.25 0.71875 -2.113281 0.625 -1.9375 C 0.53125 -1.769531 0.484375 -1.570312 0.484375 -1.34375 C 0.484375 -1.113281 0.53125 -0.910156 0.625 -0.734375 C 0.71875 -0.554688 0.847656 -0.421875 1.015625 -0.328125 C 1.191406 -0.234375 1.390625 -0.1875 1.609375 -0.1875 C 1.859375 -0.1875 2.078125 -0.25 2.265625 -0.375 C 2.460938 -0.5 2.597656 -0.675781 2.671875 -0.90625 L 2.921875 -0.90625 C 2.867188 -0.707031 2.773438 -0.535156 2.640625 -0.390625 C 2.515625 -0.253906 2.363281 -0.144531 2.1875 -0.0625 C 2.007812 0.0078125 1.816406 0.046875 1.609375 0.046875 Z M 1.609375 0.046875 "/></g></g></g><g fill="#0f7a4a" fill-opacity="1"><g transform="translate(33.000069, 21.632287)"><g><path d="M 1.625 0.046875 C 1.351562 0.046875 1.113281 -0.0078125 0.90625 -0.125 C 0.695312 -0.238281 0.535156 -0.398438 0.421875 -0.609375 C 0.304688 -0.828125 0.25 -1.070312 0.25 -1.34375 C 0.25 -1.613281 0.304688 -1.851562 0.421875 -2.0625 C 0.535156 -2.269531 0.695312 -2.429688 0.90625 -2.546875 C 1.113281 -2.671875 1.351562 -2.734375 1.625 -2.734375 C 1.894531 -2.734375 2.132812 -2.671875 2.34375 -2.546875 C 2.550781 -2.429688 2.710938 -2.269531 2.828125 -2.0625 C 2.953125 -1.851562 3.015625 -1.613281 3.015625 -1.34375 C 3.015625 -1.070312 2.953125 -0.828125 2.828125 -0.609375 C 2.710938 -0.398438 2.550781 -0.238281 2.34375 -0.125 C 2.132812 -0.0078125 1.894531 0.046875 1.625 0.046875 Z M 0.484375 -1.34375 C 0.484375 -1.113281 0.53125 -0.910156 0.625 -0.734375 C 0.71875 -0.554688 0.851562 -0.421875 1.03125 -0.328125 C 1.207031 -0.234375 1.40625 -0.1875 1.625 -0.1875 C 1.851562 -0.1875 2.050781 -0.234375 2.21875 -0.328125 C 2.394531 -0.421875 2.53125 -0.554688 2.625 -0.734375 C 2.726562 -0.910156 2.78125 -1.113281 2.78125 -1.34375 C 2.78125 -1.570312 2.726562 -1.769531 2.625 -1.9375 C 2.53125 -2.113281 2.394531 -2.25 2.21875 -2.34375 C 2.050781 -2.445312 1.851562 -2.5 1.625 -2.5 C 1.40625 -2.5 1.207031 -2.445312 1.03125 -2.34375 C 0.851562 -2.25 0.71875 -2.113281 0.625 -1.9375 C 0.53125 -1.769531 0.484375 -1.570312 0.484375 -1.34375 Z M 0.484375 -1.34375 "/></g></g></g><g fill="#0f7a4a" fill-opacity="1"><g transform="translate(36.25388, 21.632287)"><g><path d="M 0.4375 0 L 0.4375 -2.671875 L 1.453125 -2.671875 C 1.703125 -2.671875 1.898438 -2.609375 2.046875 -2.484375 C 2.191406 -2.359375 2.265625 -2.191406 2.265625 -1.984375 C 2.265625 -1.835938 2.226562 -1.710938 2.15625 -1.609375 C 2.082031 -1.503906 1.976562 -1.425781 1.84375 -1.375 C 2 -1.332031 2.117188 -1.253906 2.203125 -1.140625 C 2.296875 -1.023438 2.34375 -0.890625 2.34375 -0.734375 C 2.34375 -0.503906 2.265625 -0.320312 2.109375 -0.1875 C 1.960938 -0.0625 1.757812 0 1.5 0 Z M 0.671875 -0.21875 L 1.484375 -0.21875 C 1.679688 -0.21875 1.832031 -0.265625 1.9375 -0.359375 C 2.050781 -0.453125 2.109375 -0.578125 2.109375 -0.734375 C 2.109375 -0.898438 2.050781 -1.03125 1.9375 -1.125 C 1.820312 -1.21875 1.664062 -1.265625 1.46875 -1.265625 L 0.671875 -1.265625 Z M 0.671875 -1.46875 L 1.4375 -1.46875 C 1.625 -1.46875 1.769531 -1.507812 1.875 -1.59375 C 1.976562 -1.6875 2.03125 -1.8125 2.03125 -1.96875 C 2.03125 -2.125 1.976562 -2.242188 1.875 -2.328125 C 1.769531 -2.421875 1.628906 -2.46875 1.453125 -2.46875 L 0.671875 -2.46875 Z M 0.671875 -1.46875 "/></g></g></g><g fill="#0f7a4a" fill-opacity="1"><g transform="translate(38.841621, 21.632287)"><g><path d="M 1.09375 0 L 1.09375 -0.984375 L 0.078125 -2.671875 L 0.359375 -2.671875 L 1.21875 -1.234375 L 2.078125 -2.671875 L 2.34375 -2.671875 L 1.328125 -0.984375 L 1.328125 0 Z M 1.09375 0 "/></g></g></g></svg>