<svg xmlns="http://www.w3.org/2000/svg" xmlns:xlink="http://www.w3.org/1999/xlink" width="512" zoomAndPan="magnify" viewBox="0 0 384 383.999986" height="512" preserveAspectRatio="xMidYMid meet" version="1.0"><defs><g/><clipPath id="2b586440f6"><path d="M 164 91.242188 L 245 91.242188 L 245 229.535156 L 164 229.535156 Z M 164 91.242188 " clip-rule="nonzero"/></clipPath><clipPath id="04d2fe91f5"><path d="M 27.363281 91.242188 L 173 91.242188 L 173 229.535156 L 27.363281 229.535156 Z M 27.363281 91.242188 " clip-rule="nonzero"/></clipPath><clipPath id="7ba8bf6af2"><path d="M 211 91.242188 L 356.636719 91.242188 L 356.636719 229.535156 L 211 229.535156 Z M 211 91.242188 " clip-rule="nonzero"/></clipPath></defs><g clip-path="url(#2b586440f6)"><path fill="#1bb072" d="M 164.199219 173.679688 L 211.792969 91.246094 L 244.097656 147.003906 L 196.445312 229.535156 L 164.199219 173.679688 " fill-opacity="1" fill-rule="nonzero"/></g><g clip-path="url(#04d2fe91f5)"><path fill="#0f7a4a" d="M 92.015625 229.535156 L 172.132812 91.246094 L 107.167969 91.246094 L 27.324219 229.535156 L 92.015625 229.535156 " fill-opacity="1" fill-rule="nonzero"/></g><g clip-path="url(#7ba8bf6af2)"><path fill="#0f7a4a" d="M 356.601562 229.535156 L 276.757812 91.246094 L 211.792969 91.246094 L 291.910156 229.535156 L 356.601562 229.535156 " fill-opacity="1" fill-rule="nonzero"/></g><g fill="#0f7a4a" fill-opacity="1"><g transform="translate(76.084216, 280.902958)"><g><path d="M 10.53125 0 L 2.109375 0 L 2.109375 -37.9375 C 2.109375 -39.09375 2.519531 -40.082031 3.34375 -40.90625 C 4.164062 -41.738281 5.160156 -42.15625 6.328125 -42.15625 C 7.484375 -42.15625 8.484375 -41.734375 9.328125 -40.890625 L 35.828125 -14.390625 L 35.828125 -42.15625 L 44.25 -42.15625 L 44.25 -4.21875 C 44.25 -3.050781 43.835938 -2.054688 43.015625 -1.234375 C 42.191406 -0.410156 41.203125 0 40.046875 0 C 38.878906 0 37.878906 -0.421875 37.046875 -1.265625 L 10.53125 -27.765625 Z M 10.53125 0 "/></g></g></g><g fill="#0f7a4a" fill-opacity="1"><g transform="translate(122.445579, 280.902958)"><g><path d="M 44.25 -42.15625 L 44.25 -33.71875 L 10.53125 -33.71875 L 10.53125 -25.296875 L 44.25 -25.296875 L 44.25 -16.859375 L 10.53125 -16.859375 L 10.53125 -8.4375 L 44.25 -8.4375 L 44.25 0 L 10.53125 0 C 8.988281 0 7.578125 -0.375 6.296875 -1.125 C 5.015625 -1.882812 3.992188 -2.90625 3.234375 -4.1875 C 2.484375 -5.46875 2.109375 -6.882812 2.109375 -8.4375 L 2.109375 -33.71875 C 2.109375 -35.257812 2.484375 -36.671875 3.234375 -37.953125 C 3.992188 -39.242188 5.015625 -40.265625 6.296875 -41.015625 C 7.578125 -41.773438 8.988281 -42.15625 10.53125 -42.15625 Z M 44.25 -42.15625 "/></g></g></g><g fill="#0f7a4a" fill-opacity="1"><g transform="translate(168.806941, 280.902958)"><g><path d="M 44.25 -42.15625 L 44.25 -36.25 C 44.25 -35.050781 43.832031 -34.03125 43 -33.1875 L 30.875 -21.078125 L 43 -8.953125 C 43.832031 -8.109375 44.25 -7.09375 44.25 -5.90625 L 44.25 0 L 35.828125 0 L 35.828125 -4.21875 L 23.1875 -16.859375 L 10.53125 -4.21875 L 10.53125 0 L 2.109375 0 L 2.109375 -5.90625 C 2.109375 -7.09375 2.53125 -8.109375 3.375 -8.953125 L 15.484375 -21.078125 L 3.375 -33.1875 C 2.53125 -34.03125 2.109375 -35.050781 2.109375 -36.25 L 2.109375 -42.15625 L 10.53125 -42.15625 L 10.53125 -37.9375 L 23.1875 -25.296875 L 35.828125 -37.9375 L 35.828125 -42.15625 Z M 44.25 -42.15625 "/></g></g></g><g fill="#0f7a4a" fill-opacity="1"><g transform="translate(215.168303, 280.902958)"><g><path d="M 35.828125 0 L 10.53125 0 C 8.988281 0 7.578125 -0.375 6.296875 -1.125 C 5.015625 -1.882812 3.992188 -2.90625 3.234375 -4.1875 C 2.484375 -5.46875 2.109375 -6.882812 2.109375 -8.4375 L 2.109375 -42.15625 L 10.53125 -42.15625 L 10.53125 -8.4375 L 35.828125 -8.4375 L 35.828125 -42.15625 L 44.25 -42.15625 L 44.25 -8.4375 C 44.25 -6.882812 43.867188 -5.46875 43.109375 -4.1875 C 42.359375 -2.90625 41.34375 -1.882812 40.0625 -1.125 C 38.78125 -0.375 37.367188 0 35.828125 0 Z M 35.828125 0 "/></g></g></g><g fill="#0f7a4a" fill-opacity="1"><g transform="translate(261.529665, 280.902958)"><g><path d="M 44.25 -42.15625 L 44.25 -33.71875 L 10.53125 -33.71875 L 10.53125 -25.296875 L 35.828125 -25.296875 C 37.367188 -25.296875 38.78125 -24.914062 40.0625 -24.15625 C 41.34375 -23.40625 42.359375 -22.382812 43.109375 -21.09375 C 43.867188 -19.8125 44.25 -18.398438 44.25 -16.859375 L 44.25 -8.4375 C 44.25 -6.882812 43.867188 -5.46875 43.109375 -4.1875 C 42.359375 -2.90625 41.34375 -1.882812 40.0625 -1.125 C 38.78125 -0.375 37.367188 0 35.828125 0 L 2.109375 0 L 2.109375 -8.4375 L 35.828125 -8.4375 L 35.828125 -16.859375 L 10.53125 -16.859375 C 8.988281 -16.859375 7.578125 -17.234375 6.296875 -17.984375 C 5.015625 -18.742188 3.992188 -19.765625 3.234375 -21.046875 C 2.484375 -22.328125 2.109375 -23.742188 2.109375 -25.296875 L 2.109375 -33.71875 C 2.109375 -35.257812 2.484375 -36.671875 3.234375 -37.953125 C 3.992188 -39.242188 5.015625 -40.265625 6.296875 -41.015625 C 7.578125 -41.773438 8.988281 -42.15625 10.53125 -42.15625 Z M 44.25 -42.15625 "/></g></g></g></svg>