<svg xmlns="http://www.w3.org/2000/svg" xmlns:xlink="http://www.w3.org/1999/xlink" width="240" zoomAndPan="magnify" viewBox="0 0 180 54" height="72" preserveAspectRatio="xMidYMid meet" version="1.0"><defs><g/><clipPath id="1172993d20"><path d="M 119 7.113281 L 142 7.113281 L 142 45.875 L 119 45.875 Z M 119 7.113281 " clip-rule="nonzero"/></clipPath><clipPath id="17514ad52a"><path d="M 80.765625 7.113281 L 122 7.113281 L 122 45.875 L 80.765625 45.875 Z M 80.765625 7.113281 " clip-rule="nonzero"/></clipPath><clipPath id="d0d4563241"><path d="M 132 7.113281 L 173.054688 7.113281 L 173.054688 45.875 L 132 45.875 Z M 132 7.113281 " clip-rule="nonzero"/></clipPath></defs><g clip-path="url(#1172993d20)"><path fill="#1bb072" d="M 119.15625 30.230469 L 132.488281 7.140625 L 141.535156 22.757812 L 128.1875 45.875 L 119.15625 30.230469 " fill-opacity="1" fill-rule="nonzero"/></g><g clip-path="url(#17514ad52a)"><path fill="#0f7a4a" d="M 98.9375 45.875 L 121.378906 7.140625 L 103.179688 7.140625 L 80.816406 45.875 L 98.9375 45.875 " fill-opacity="1" fill-rule="nonzero"/></g><g clip-path="url(#d0d4563241)"><path fill="#0f7a4a" d="M 173.046875 45.875 L 150.683594 7.140625 L 132.488281 7.140625 L 154.925781 45.875 L 173.046875 45.875 " fill-opacity="1" fill-rule="nonzero"/></g><g fill="#0f7a4a" fill-opacity="1"><g transform="translate(13.4417, 29.514521)"><g><path d="M 3.1875 0 L 0.640625 0 L 0.640625 -11.46875 C 0.640625 -11.820312 0.765625 -12.125 1.015625 -12.375 C 1.265625 -12.625 1.5625 -12.75 1.90625 -12.75 C 2.257812 -12.75 2.566406 -12.625 2.828125 -12.375 L 10.84375 -4.34375 L 10.84375 -12.75 L 13.390625 -12.75 L 13.390625 -1.28125 C 13.390625 -0.925781 13.265625 -0.625 13.015625 -0.375 C 12.765625 -0.125 12.460938 0 12.109375 0 C 11.765625 0 11.460938 -0.125 11.203125 -0.375 L 3.1875 -8.40625 Z M 3.1875 0 "/></g></g></g><g fill="#0f7a4a" fill-opacity="1"><g transform="translate(27.461949, 29.514521)"><g><path d="M 13.390625 -12.75 L 13.390625 -10.203125 L 3.1875 -10.203125 L 3.1875 -7.65625 L 13.390625 -7.65625 L 13.390625 -5.09375 L 3.1875 -5.09375 L 3.1875 -2.546875 L 13.390625 -2.546875 L 13.390625 0 L 3.1875 0 C 2.71875 0 2.289062 -0.113281 1.90625 -0.34375 C 1.519531 -0.570312 1.210938 -0.878906 0.984375 -1.265625 C 0.753906 -1.648438 0.640625 -2.078125 0.640625 -2.546875 L 0.640625 -10.203125 C 0.640625 -10.671875 0.753906 -11.097656 0.984375 -11.484375 C 1.210938 -11.867188 1.519531 -12.175781 1.90625 -12.40625 C 2.289062 -12.632812 2.71875 -12.75 3.1875 -12.75 Z M 13.390625 -12.75 "/></g></g></g><g fill="#0f7a4a" fill-opacity="1"><g transform="translate(41.482198, 29.514521)"><g><path d="M 13.390625 -12.75 L 13.390625 -10.96875 C 13.390625 -10.601562 13.257812 -10.296875 13 -10.046875 L 9.34375 -6.375 L 13 -2.703125 C 13.257812 -2.453125 13.390625 -2.144531 13.390625 -1.78125 L 13.390625 0 L 10.84375 0 L 10.84375 -1.28125 L 7.015625 -5.09375 L 3.1875 -1.28125 L 3.1875 0 L 0.640625 0 L 0.640625 -1.78125 C 0.640625 -2.144531 0.765625 -2.453125 1.015625 -2.703125 L 4.6875 -6.375 L 1.015625 -10.046875 C 0.765625 -10.296875 0.640625 -10.601562 0.640625 -10.96875 L 0.640625 -12.75 L 3.1875 -12.75 L 3.1875 -11.46875 L 7.015625 -7.65625 L 10.84375 -11.46875 L 10.84375 -12.75 Z M 13.390625 -12.75 "/></g></g></g><g fill="#0f7a4a" fill-opacity="1"><g transform="translate(55.502447, 29.514521)"><g><path d="M 10.84375 0 L 3.1875 0 C 2.71875 0 2.289062 -0.113281 1.90625 -0.34375 C 1.519531 -0.570312 1.210938 -0.878906 0.984375 -1.265625 C 0.753906 -1.648438 0.640625 -2.078125 0.640625 -2.546875 L 0.640625 -12.75 L 3.1875 -12.75 L 3.1875 -2.546875 L 10.84375 -2.546875 L 10.84375 -12.75 L 13.390625 -12.75 L 13.390625 -2.546875 C 13.390625 -2.078125 13.273438 -1.648438 13.046875 -1.265625 C 12.816406 -0.878906 12.503906 -0.570312 12.109375 -0.34375 C 11.722656 -0.113281 11.300781 0 10.84375 0 Z M 10.84375 0 "/></g></g></g><g fill="#0f7a4a" fill-opacity="1"><g transform="translate(69.522697, 29.514521)"><g><path d="M 13.390625 -12.75 L 13.390625 -10.203125 L 3.1875 -10.203125 L 3.1875 -7.65625 L 10.84375 -7.65625 C 11.300781 -7.65625 11.722656 -7.539062 12.109375 -7.3125 C 12.503906 -7.082031 12.816406 -6.769531 13.046875 -6.375 C 13.273438 -5.988281 13.390625 -5.5625 13.390625 -5.09375 L 13.390625 -2.546875 C 13.390625 -2.078125 13.273438 -1.648438 13.046875 -1.265625 C 12.816406 -0.878906 12.503906 -0.570312 12.109375 -0.34375 C 11.722656 -0.113281 11.300781 0 10.84375 0 L 0.640625 0 L 0.640625 -2.546875 L 10.84375 -2.546875 L 10.84375 -5.09375 L 3.1875 -5.09375 C 2.71875 -5.09375 2.289062 -5.207031 1.90625 -5.4375 C 1.519531 -5.664062 1.210938 -5.972656 0.984375 -6.359375 C 0.753906 -6.753906 0.640625 -7.1875 0.640625 -7.65625 L 0.640625 -10.203125 C 0.640625 -10.671875 0.753906 -11.097656 0.984375 -11.484375 C 1.210938 -11.867188 1.519531 -12.175781 1.90625 -12.40625 C 2.289062 -12.632812 2.71875 -12.75 3.1875 -12.75 Z M 13.390625 -12.75 "/></g></g></g><g fill="#0f7a4a" fill-opacity="1"><g transform="translate(26.076744, 36.987601)"><g><path d="M 0.734375 0 L 0.734375 -4.578125 L 2.484375 -4.578125 C 2.898438 -4.578125 3.234375 -4.46875 3.484375 -4.25 C 3.742188 -4.039062 3.875 -3.753906 3.875 -3.390625 C 3.875 -3.140625 3.8125 -2.925781 3.6875 -2.75 C 3.5625 -2.570312 3.382812 -2.441406 3.15625 -2.359375 C 3.425781 -2.285156 3.632812 -2.148438 3.78125 -1.953125 C 3.925781 -1.765625 4 -1.53125 4 -1.25 C 4 -0.863281 3.867188 -0.554688 3.609375 -0.328125 C 3.347656 -0.109375 2.992188 0 2.546875 0 Z M 1.140625 -0.375 L 2.546875 -0.375 C 2.867188 -0.375 3.125 -0.453125 3.3125 -0.609375 C 3.5 -0.765625 3.59375 -0.984375 3.59375 -1.265625 C 3.59375 -1.546875 3.5 -1.765625 3.3125 -1.921875 C 3.125 -2.078125 2.859375 -2.15625 2.515625 -2.15625 L 1.140625 -2.15625 Z M 1.140625 -2.515625 L 2.46875 -2.515625 C 2.78125 -2.515625 3.023438 -2.585938 3.203125 -2.734375 C 3.378906 -2.890625 3.46875 -3.097656 3.46875 -3.359375 C 3.46875 -3.628906 3.378906 -3.835938 3.203125 -3.984375 C 3.023438 -4.128906 2.78125 -4.203125 2.46875 -4.203125 L 1.140625 -4.203125 Z M 1.140625 -2.515625 "/></g></g></g><g fill="#0f7a4a" fill-opacity="1"><g transform="translate(30.501348, 36.987601)"><g><path d="M 1.875 0 L 1.875 -1.6875 L 0.140625 -4.578125 L 0.609375 -4.578125 L 2.078125 -2.109375 L 3.5625 -4.578125 L 4 -4.578125 L 2.265625 -1.703125 L 2.265625 0 Z M 1.875 0 "/></g></g></g><g fill="#0f7a4a" fill-opacity="1"><g transform="translate(34.651045, 36.987601)"><g/></g></g><g fill="#0f7a4a" fill-opacity="1"><g transform="translate(36.40518, 36.987601)"><g><path d="M 0.734375 0 L 0.734375 -4.578125 L 1.109375 -4.578125 L 3.015625 -1.71875 L 4.921875 -4.578125 L 5.296875 -4.578125 L 5.296875 0 L 4.890625 0 L 4.890625 -3.84375 L 3.1875 -1.28125 L 2.859375 -1.28125 L 1.140625 -3.84375 L 1.140625 0 Z M 0.734375 0 "/></g></g></g><g fill="#0f7a4a" fill-opacity="1"><g transform="translate(42.433374, 36.987601)"><g><path d="M 0.140625 0 L 2.046875 -4.578125 L 2.421875 -4.578125 L 4.328125 0 L 3.90625 0 L 3.421875 -1.15625 L 1.046875 -1.15625 L 0.5625 0 Z M 1.203125 -1.515625 L 3.28125 -1.515625 L 2.234375 -4.046875 Z M 1.203125 -1.515625 "/></g></g></g><g fill="#0f7a4a" fill-opacity="1"><g transform="translate(46.903792, 36.987601)"><g><path d="M 0.734375 0 L 0.734375 -4.578125 L 2.4375 -4.578125 C 2.75 -4.578125 3.015625 -4.519531 3.234375 -4.40625 C 3.460938 -4.289062 3.640625 -4.125 3.765625 -3.90625 C 3.890625 -3.695312 3.953125 -3.445312 3.953125 -3.15625 C 3.953125 -2.78125 3.847656 -2.46875 3.640625 -2.21875 C 3.429688 -1.96875 3.144531 -1.8125 2.78125 -1.75 L 4.03125 0 L 3.5625 0 L 2.328125 -1.71875 L 1.140625 -1.71875 L 1.140625 0 Z M 1.140625 -2.109375 L 2.390625 -2.109375 C 2.753906 -2.109375 3.039062 -2.203125 3.25 -2.390625 C 3.457031 -2.578125 3.5625 -2.832031 3.5625 -3.15625 C 3.5625 -3.476562 3.457031 -3.734375 3.25 -3.921875 C 3.039062 -4.109375 2.753906 -4.203125 2.390625 -4.203125 L 1.140625 -4.203125 Z M 1.140625 -2.109375 "/></g></g></g><g fill="#0f7a4a" fill-opacity="1"><g transform="translate(51.380758, 36.987601)"><g><path d="M 2.75 0.078125 C 2.289062 0.078125 1.882812 -0.0195312 1.53125 -0.21875 C 1.1875 -0.425781 0.914062 -0.707031 0.71875 -1.0625 C 0.519531 -1.414062 0.421875 -1.828125 0.421875 -2.296875 C 0.421875 -2.753906 0.519531 -3.160156 0.71875 -3.515625 C 0.914062 -3.878906 1.1875 -4.160156 1.53125 -4.359375 C 1.882812 -4.566406 2.289062 -4.671875 2.75 -4.671875 C 3.09375 -4.671875 3.410156 -4.601562 3.703125 -4.46875 C 4.003906 -4.34375 4.257812 -4.160156 4.46875 -3.921875 C 4.6875 -3.691406 4.847656 -3.414062 4.953125 -3.09375 L 4.53125 -3.09375 C 4.394531 -3.457031 4.164062 -3.742188 3.84375 -3.953125 C 3.53125 -4.160156 3.164062 -4.265625 2.75 -4.265625 C 2.375 -4.265625 2.039062 -4.179688 1.75 -4.015625 C 1.46875 -3.847656 1.242188 -3.613281 1.078125 -3.3125 C 0.910156 -3.019531 0.828125 -2.679688 0.828125 -2.296875 C 0.828125 -1.898438 0.910156 -1.550781 1.078125 -1.25 C 1.242188 -0.957031 1.46875 -0.726562 1.75 -0.5625 C 2.039062 -0.394531 2.375 -0.3125 2.75 -0.3125 C 3.175781 -0.3125 3.550781 -0.421875 3.875 -0.640625 C 4.207031 -0.859375 4.4375 -1.15625 4.5625 -1.53125 L 4.984375 -1.53125 C 4.890625 -1.207031 4.734375 -0.921875 4.515625 -0.671875 C 4.304688 -0.429688 4.046875 -0.242188 3.734375 -0.109375 C 3.429688 0.015625 3.101562 0.078125 2.75 0.078125 Z M 2.75 0.078125 "/></g></g></g><g fill="#0f7a4a" fill-opacity="1"><g transform="translate(56.76097, 36.987601)"><g><path d="M 2.78125 0.078125 C 2.320312 0.078125 1.910156 -0.0195312 1.546875 -0.21875 C 1.191406 -0.414062 0.914062 -0.691406 0.71875 -1.046875 C 0.519531 -1.410156 0.421875 -1.828125 0.421875 -2.296875 C 0.421875 -2.753906 0.519531 -3.160156 0.71875 -3.515625 C 0.914062 -3.878906 1.191406 -4.160156 1.546875 -4.359375 C 1.910156 -4.566406 2.320312 -4.671875 2.78125 -4.671875 C 3.25 -4.671875 3.660156 -4.566406 4.015625 -4.359375 C 4.367188 -4.160156 4.644531 -3.878906 4.84375 -3.515625 C 5.039062 -3.160156 5.140625 -2.753906 5.140625 -2.296875 C 5.140625 -1.828125 5.039062 -1.410156 4.84375 -1.046875 C 4.644531 -0.691406 4.367188 -0.414062 4.015625 -0.21875 C 3.660156 -0.0195312 3.25 0.078125 2.78125 0.078125 Z M 0.828125 -2.296875 C 0.828125 -1.898438 0.910156 -1.550781 1.078125 -1.25 C 1.242188 -0.957031 1.472656 -0.726562 1.765625 -0.5625 C 2.054688 -0.394531 2.394531 -0.3125 2.78125 -0.3125 C 3.164062 -0.3125 3.503906 -0.394531 3.796875 -0.5625 C 4.097656 -0.726562 4.332031 -0.957031 4.5 -1.25 C 4.664062 -1.550781 4.75 -1.898438 4.75 -2.296875 C 4.75 -2.679688 4.664062 -3.019531 4.5 -3.3125 C 4.332031 -3.613281 4.097656 -3.847656 3.796875 -4.015625 C 3.503906 -4.179688 3.164062 -4.265625 2.78125 -4.265625 C 2.394531 -4.265625 2.054688 -4.179688 1.765625 -4.015625 C 1.472656 -3.847656 1.242188 -3.613281 1.078125 -3.3125 C 0.910156 -3.019531 0.828125 -2.679688 0.828125 -2.296875 Z M 0.828125 -2.296875 "/></g></g></g><g fill="#0f7a4a" fill-opacity="1"><g transform="translate(62.324445, 36.987601)"><g><path d="M 0.734375 0 L 0.734375 -4.578125 L 2.484375 -4.578125 C 2.898438 -4.578125 3.234375 -4.46875 3.484375 -4.25 C 3.742188 -4.039062 3.875 -3.753906 3.875 -3.390625 C 3.875 -3.140625 3.8125 -2.925781 3.6875 -2.75 C 3.5625 -2.570312 3.382812 -2.441406 3.15625 -2.359375 C 3.425781 -2.285156 3.632812 -2.148438 3.78125 -1.953125 C 3.925781 -1.765625 4 -1.53125 4 -1.25 C 4 -0.863281 3.867188 -0.554688 3.609375 -0.328125 C 3.347656 -0.109375 2.992188 0 2.546875 0 Z M 1.140625 -0.375 L 2.546875 -0.375 C 2.867188 -0.375 3.125 -0.453125 3.3125 -0.609375 C 3.5 -0.765625 3.59375 -0.984375 3.59375 -1.265625 C 3.59375 -1.546875 3.5 -1.765625 3.3125 -1.921875 C 3.125 -2.078125 2.859375 -2.15625 2.515625 -2.15625 L 1.140625 -2.15625 Z M 1.140625 -2.515625 L 2.46875 -2.515625 C 2.78125 -2.515625 3.023438 -2.585938 3.203125 -2.734375 C 3.378906 -2.890625 3.46875 -3.097656 3.46875 -3.359375 C 3.46875 -3.628906 3.378906 -3.835938 3.203125 -3.984375 C 3.023438 -4.128906 2.78125 -4.203125 2.46875 -4.203125 L 1.140625 -4.203125 Z M 1.140625 -2.515625 "/></g></g></g><g fill="#0f7a4a" fill-opacity="1"><g transform="translate(66.749049, 36.987601)"><g><path d="M 1.875 0 L 1.875 -1.6875 L 0.140625 -4.578125 L 0.609375 -4.578125 L 2.078125 -2.109375 L 3.5625 -4.578125 L 4 -4.578125 L 2.265625 -1.703125 L 2.265625 0 Z M 1.875 0 "/></g></g></g></svg>