<svg xmlns="http://www.w3.org/2000/svg" xmlns:xlink="http://www.w3.org/1999/xlink" width="160" zoomAndPan="magnify" viewBox="0 0 120 36.000001" height="48" preserveAspectRatio="xMidYMid meet" version="1.0"><defs><g/><clipPath id="9ec93d6300"><path d="M 79 4.699219 L 95 4.699219 L 95 30.308594 L 79 30.308594 Z M 79 4.699219 " clip-rule="nonzero"/></clipPath><clipPath id="c8bc49560d"><path d="M 53.898438 4.699219 L 81 4.699219 L 81 30.308594 L 53.898438 30.308594 Z M 53.898438 4.699219 " clip-rule="nonzero"/></clipPath><clipPath id="83e2c8c627"><path d="M 88 4.699219 L 114.871094 4.699219 L 114.871094 30.308594 L 88 30.308594 Z M 88 4.699219 " clip-rule="nonzero"/></clipPath></defs><g clip-path="url(#9ec93d6300)"><path fill="#1bb072" d="M 79.261719 19.972656 L 88.070312 4.714844 L 94.046875 15.035156 L 85.230469 30.308594 L 79.261719 19.972656 " fill-opacity="1" fill-rule="nonzero"/></g><g clip-path="url(#c8bc49560d)"><path fill="#0f7a4a" d="M 65.90625 30.308594 L 80.730469 4.714844 L 68.707031 4.714844 L 53.933594 30.308594 L 65.90625 30.308594 " fill-opacity="1" fill-rule="nonzero"/></g><g clip-path="url(#83e2c8c627)"><path fill="#0f7a4a" d="M 114.867188 30.308594 L 100.089844 4.714844 L 88.070312 4.714844 L 102.894531 30.308594 L 114.867188 30.308594 " fill-opacity="1" fill-rule="nonzero"/></g><g fill="#0f7a4a" fill-opacity="1"><g transform="translate(9.420941, 19.499083)"><g><path d="M 2.109375 0 L 0.421875 0 L 0.421875 -7.578125 C 0.421875 -7.816406 0.503906 -8.015625 0.671875 -8.171875 C 0.835938 -8.335938 1.035156 -8.421875 1.265625 -8.421875 C 1.492188 -8.421875 1.691406 -8.335938 1.859375 -8.171875 L 7.15625 -2.875 L 7.15625 -8.421875 L 8.84375 -8.421875 L 8.84375 -0.84375 C 8.84375 -0.613281 8.757812 -0.414062 8.59375 -0.25 C 8.425781 -0.0820312 8.226562 0 8 0 C 7.769531 0 7.570312 -0.0820312 7.40625 -0.25 L 2.109375 -5.546875 Z M 2.109375 0 "/></g></g></g><g fill="#0f7a4a" fill-opacity="1"><g transform="translate(18.683568, 19.499083)"><g><path d="M 8.84375 -8.421875 L 8.84375 -6.734375 L 2.109375 -6.734375 L 2.109375 -5.0625 L 8.84375 -5.0625 L 8.84375 -3.375 L 2.109375 -3.375 L 2.109375 -1.6875 L 8.84375 -1.6875 L 8.84375 0 L 2.109375 0 C 1.796875 0 1.507812 -0.0703125 1.25 -0.21875 C 1 -0.375 0.796875 -0.578125 0.640625 -0.828125 C 0.492188 -1.085938 0.421875 -1.375 0.421875 -1.6875 L 0.421875 -6.734375 C 0.421875 -7.046875 0.492188 -7.328125 0.640625 -7.578125 C 0.796875 -7.835938 1 -8.039062 1.25 -8.1875 C 1.507812 -8.34375 1.796875 -8.421875 2.109375 -8.421875 Z M 8.84375 -8.421875 "/></g></g></g><g fill="#0f7a4a" fill-opacity="1"><g transform="translate(27.946194, 19.499083)"><g><path d="M 8.84375 -8.421875 L 8.84375 -7.25 C 8.84375 -7.007812 8.757812 -6.804688 8.59375 -6.640625 L 6.171875 -4.21875 L 8.59375 -1.796875 C 8.757812 -1.617188 8.84375 -1.410156 8.84375 -1.171875 L 8.84375 0 L 7.15625 0 L 7.15625 -0.84375 L 4.640625 -3.375 L 2.109375 -0.84375 L 2.109375 0 L 0.421875 0 L 0.421875 -1.171875 C 0.421875 -1.410156 0.503906 -1.617188 0.671875 -1.796875 L 3.09375 -4.21875 L 0.671875 -6.640625 C 0.503906 -6.804688 0.421875 -7.007812 0.421875 -7.25 L 0.421875 -8.421875 L 2.109375 -8.421875 L 2.109375 -7.578125 L 4.640625 -5.0625 L 7.15625 -7.578125 L 7.15625 -8.421875 Z M 8.84375 -8.421875 "/></g></g></g><g fill="#0f7a4a" fill-opacity="1"><g transform="translate(37.208821, 19.499083)"><g><path d="M 7.15625 0 L 2.109375 0 C 1.796875 0 1.507812 -0.0703125 1.25 -0.21875 C 1 -0.375 0.796875 -0.578125 0.640625 -0.828125 C 0.492188 -1.085938 0.421875 -1.375 0.421875 -1.6875 L 0.421875 -8.421875 L 2.109375 -8.421875 L 2.109375 -1.6875 L 7.15625 -1.6875 L 7.15625 -8.421875 L 8.84375 -8.421875 L 8.84375 -1.6875 C 8.84375 -1.375 8.765625 -1.085938 8.609375 -0.828125 C 8.460938 -0.578125 8.257812 -0.375 8 -0.21875 C 7.75 -0.0703125 7.46875 0 7.15625 0 Z M 7.15625 0 "/></g></g></g><g fill="#0f7a4a" fill-opacity="1"><g transform="translate(46.471447, 19.499083)"><g><path d="M 8.84375 -8.421875 L 8.84375 -6.734375 L 2.109375 -6.734375 L 2.109375 -5.0625 L 7.15625 -5.0625 C 7.46875 -5.0625 7.75 -4.984375 8 -4.828125 C 8.257812 -4.679688 8.460938 -4.476562 8.609375 -4.21875 C 8.765625 -3.957031 8.84375 -3.675781 8.84375 -3.375 L 8.84375 -1.6875 C 8.84375 -1.375 8.765625 -1.085938 8.609375 -0.828125 C 8.460938 -0.578125 8.257812 -0.375 8 -0.21875 C 7.75 -0.0703125 7.46875 0 7.15625 0 L 0.421875 0 L 0.421875 -1.6875 L 7.15625 -1.6875 L 7.15625 -3.375 L 2.109375 -3.375 C 1.796875 -3.375 1.507812 -3.445312 1.25 -3.59375 C 1 -3.75 0.796875 -3.953125 0.640625 -4.203125 C 0.492188 -4.460938 0.421875 -4.75 0.421875 -5.0625 L 0.421875 -6.734375 C 0.421875 -7.046875 0.492188 -7.328125 0.640625 -7.578125 C 0.796875 -7.835938 1 -8.039062 1.25 -8.1875 C 1.507812 -8.34375 1.796875 -8.421875 2.109375 -8.421875 Z M 8.84375 -8.421875 "/></g></g></g><g fill="#0f7a4a" fill-opacity="1"><g transform="translate(17.768418, 24.436253)"><g><path d="M 0.484375 0 L 0.484375 -3.03125 L 1.640625 -3.03125 C 1.921875 -3.03125 2.144531 -2.957031 2.3125 -2.8125 C 2.476562 -2.664062 2.5625 -2.472656 2.5625 -2.234375 C 2.5625 -2.078125 2.519531 -1.9375 2.4375 -1.8125 C 2.351562 -1.695312 2.238281 -1.613281 2.09375 -1.5625 C 2.269531 -1.507812 2.40625 -1.421875 2.5 -1.296875 C 2.59375 -1.171875 2.640625 -1.015625 2.640625 -0.828125 C 2.640625 -0.578125 2.550781 -0.375 2.375 -0.21875 C 2.207031 -0.0703125 1.976562 0 1.6875 0 Z M 0.75 -0.25 L 1.671875 -0.25 C 1.898438 -0.25 2.070312 -0.300781 2.1875 -0.40625 C 2.3125 -0.507812 2.375 -0.648438 2.375 -0.828125 C 2.375 -1.015625 2.3125 -1.160156 2.1875 -1.265625 C 2.0625 -1.367188 1.890625 -1.421875 1.671875 -1.421875 L 0.75 -1.421875 Z M 0.75 -1.671875 L 1.625 -1.671875 C 1.832031 -1.671875 1.992188 -1.71875 2.109375 -1.8125 C 2.234375 -1.90625 2.296875 -2.039062 2.296875 -2.21875 C 2.296875 -2.394531 2.234375 -2.53125 2.109375 -2.625 C 1.992188 -2.726562 1.835938 -2.78125 1.640625 -2.78125 L 0.75 -2.78125 Z M 0.75 -1.671875 "/></g></g></g><g fill="#0f7a4a" fill-opacity="1"><g transform="translate(20.69158, 24.436253)"><g><path d="M 1.234375 0 L 1.234375 -1.109375 L 0.09375 -3.03125 L 0.390625 -3.03125 L 1.375 -1.390625 L 2.34375 -3.03125 L 2.65625 -3.03125 L 1.5 -1.125 L 1.5 0 Z M 1.234375 0 "/></g></g></g><g fill="#0f7a4a" fill-opacity="1"><g transform="translate(23.433122, 24.436253)"><g/></g></g><g fill="#0f7a4a" fill-opacity="1"><g transform="translate(24.59201, 24.436253)"><g><path d="M 0.484375 0 L 0.484375 -3.03125 L 0.734375 -3.03125 L 2 -1.140625 L 3.25 -3.03125 L 3.5 -3.03125 L 3.5 0 L 3.234375 0 L 3.234375 -2.546875 L 2.109375 -0.84375 L 1.890625 -0.84375 L 0.75 -2.546875 L 0.75 0 Z M 0.484375 0 "/></g></g></g><g fill="#0f7a4a" fill-opacity="1"><g transform="translate(28.5746, 24.436253)"><g><path d="M 0.09375 0 L 1.34375 -3.03125 L 1.59375 -3.03125 L 2.859375 0 L 2.578125 0 L 2.265625 -0.765625 L 0.6875 -0.765625 L 0.375 0 Z M 0.796875 -1 L 2.15625 -1 L 1.46875 -2.671875 Z M 0.796875 -1 "/></g></g></g><g fill="#0f7a4a" fill-opacity="1"><g transform="translate(31.52803, 24.436253)"><g><path d="M 0.484375 0 L 0.484375 -3.03125 L 1.609375 -3.03125 C 1.816406 -3.03125 1.992188 -2.988281 2.140625 -2.90625 C 2.296875 -2.832031 2.414062 -2.722656 2.5 -2.578125 C 2.582031 -2.441406 2.625 -2.28125 2.625 -2.09375 C 2.625 -1.832031 2.550781 -1.617188 2.40625 -1.453125 C 2.269531 -1.296875 2.082031 -1.195312 1.84375 -1.15625 L 2.671875 0 L 2.34375 0 L 1.53125 -1.140625 L 0.75 -1.140625 L 0.75 0 Z M 0.75 -1.390625 L 1.578125 -1.390625 C 1.816406 -1.390625 2.003906 -1.453125 2.140625 -1.578125 C 2.273438 -1.703125 2.34375 -1.875 2.34375 -2.09375 C 2.34375 -2.300781 2.273438 -2.46875 2.140625 -2.59375 C 2.003906 -2.71875 1.816406 -2.78125 1.578125 -2.78125 L 0.75 -2.78125 Z M 0.75 -1.390625 "/></g></g></g><g fill="#0f7a4a" fill-opacity="1"><g transform="translate(34.485785, 24.436253)"><g><path d="M 1.8125 0.0625 C 1.519531 0.0625 1.253906 -0.00390625 1.015625 -0.140625 C 0.785156 -0.273438 0.601562 -0.460938 0.46875 -0.703125 C 0.34375 -0.941406 0.28125 -1.210938 0.28125 -1.515625 C 0.28125 -1.828125 0.34375 -2.097656 0.46875 -2.328125 C 0.601562 -2.566406 0.785156 -2.75 1.015625 -2.875 C 1.253906 -3.007812 1.519531 -3.078125 1.8125 -3.078125 C 2.039062 -3.078125 2.253906 -3.035156 2.453125 -2.953125 C 2.648438 -2.867188 2.816406 -2.75 2.953125 -2.59375 C 3.097656 -2.445312 3.203125 -2.265625 3.265625 -2.046875 L 3 -2.046875 C 2.90625 -2.285156 2.753906 -2.472656 2.546875 -2.609375 C 2.335938 -2.753906 2.09375 -2.828125 1.8125 -2.828125 C 1.570312 -2.828125 1.351562 -2.769531 1.15625 -2.65625 C 0.96875 -2.550781 0.816406 -2.398438 0.703125 -2.203125 C 0.597656 -2.003906 0.546875 -1.773438 0.546875 -1.515625 C 0.546875 -1.253906 0.597656 -1.023438 0.703125 -0.828125 C 0.816406 -0.628906 0.96875 -0.472656 1.15625 -0.359375 C 1.351562 -0.253906 1.570312 -0.203125 1.8125 -0.203125 C 2.09375 -0.203125 2.34375 -0.273438 2.5625 -0.421875 C 2.78125 -0.566406 2.929688 -0.765625 3.015625 -1.015625 L 3.296875 -1.015625 C 3.234375 -0.796875 3.128906 -0.601562 2.984375 -0.4375 C 2.847656 -0.28125 2.675781 -0.15625 2.46875 -0.0625 C 2.269531 0.0195312 2.050781 0.0625 1.8125 0.0625 Z M 1.8125 0.0625 "/></g></g></g><g fill="#0f7a4a" fill-opacity="1"><g transform="translate(38.040279, 24.436253)"><g><path d="M 1.84375 0.0625 C 1.53125 0.0625 1.253906 -0.00390625 1.015625 -0.140625 C 0.785156 -0.273438 0.601562 -0.457031 0.46875 -0.6875 C 0.34375 -0.925781 0.28125 -1.203125 0.28125 -1.515625 C 0.28125 -1.828125 0.34375 -2.097656 0.46875 -2.328125 C 0.601562 -2.566406 0.785156 -2.75 1.015625 -2.875 C 1.253906 -3.007812 1.53125 -3.078125 1.84375 -3.078125 C 2.144531 -3.078125 2.414062 -3.007812 2.65625 -2.875 C 2.894531 -2.75 3.078125 -2.566406 3.203125 -2.328125 C 3.335938 -2.097656 3.40625 -1.828125 3.40625 -1.515625 C 3.40625 -1.203125 3.335938 -0.925781 3.203125 -0.6875 C 3.078125 -0.457031 2.894531 -0.273438 2.65625 -0.140625 C 2.414062 -0.00390625 2.144531 0.0625 1.84375 0.0625 Z M 0.546875 -1.515625 C 0.546875 -1.253906 0.597656 -1.023438 0.703125 -0.828125 C 0.816406 -0.628906 0.96875 -0.472656 1.15625 -0.359375 C 1.351562 -0.253906 1.582031 -0.203125 1.84375 -0.203125 C 2.09375 -0.203125 2.316406 -0.253906 2.515625 -0.359375 C 2.710938 -0.472656 2.863281 -0.628906 2.96875 -0.828125 C 3.082031 -1.023438 3.140625 -1.253906 3.140625 -1.515625 C 3.140625 -1.773438 3.082031 -2.003906 2.96875 -2.203125 C 2.863281 -2.398438 2.710938 -2.550781 2.515625 -2.65625 C 2.316406 -2.769531 2.09375 -2.828125 1.84375 -2.828125 C 1.582031 -2.828125 1.351562 -2.769531 1.15625 -2.65625 C 0.96875 -2.550781 0.816406 -2.398438 0.703125 -2.203125 C 0.597656 -2.003906 0.546875 -1.773438 0.546875 -1.515625 Z M 0.546875 -1.515625 "/></g></g></g><g fill="#0f7a4a" fill-opacity="1"><g transform="translate(41.715848, 24.436253)"><g><path d="M 0.484375 0 L 0.484375 -3.03125 L 1.640625 -3.03125 C 1.921875 -3.03125 2.144531 -2.957031 2.3125 -2.8125 C 2.476562 -2.664062 2.5625 -2.472656 2.5625 -2.234375 C 2.5625 -2.078125 2.519531 -1.9375 2.4375 -1.8125 C 2.351562 -1.695312 2.238281 -1.613281 2.09375 -1.5625 C 2.269531 -1.507812 2.40625 -1.421875 2.5 -1.296875 C 2.59375 -1.171875 2.640625 -1.015625 2.640625 -0.828125 C 2.640625 -0.578125 2.550781 -0.375 2.375 -0.21875 C 2.207031 -0.0703125 1.976562 0 1.6875 0 Z M 0.75 -0.25 L 1.671875 -0.25 C 1.898438 -0.25 2.070312 -0.300781 2.1875 -0.40625 C 2.3125 -0.507812 2.375 -0.648438 2.375 -0.828125 C 2.375 -1.015625 2.3125 -1.160156 2.1875 -1.265625 C 2.0625 -1.367188 1.890625 -1.421875 1.671875 -1.421875 L 0.75 -1.421875 Z M 0.75 -1.671875 L 1.625 -1.671875 C 1.832031 -1.671875 1.992188 -1.71875 2.109375 -1.8125 C 2.234375 -1.90625 2.296875 -2.039062 2.296875 -2.21875 C 2.296875 -2.394531 2.234375 -2.53125 2.109375 -2.625 C 1.992188 -2.726562 1.835938 -2.78125 1.640625 -2.78125 L 0.75 -2.78125 Z M 0.75 -1.671875 "/></g></g></g><g fill="#0f7a4a" fill-opacity="1"><g transform="translate(44.63901, 24.436253)"><g><path d="M 1.234375 0 L 1.234375 -1.109375 L 0.09375 -3.03125 L 0.390625 -3.03125 L 1.375 -1.390625 L 2.34375 -3.03125 L 2.65625 -3.03125 L 1.5 -1.125 L 1.5 0 Z M 1.234375 0 "/></g></g></g></svg>